<mxfile host="app.diagrams.net" modified="2024-07-01T22:26:34.437Z" agent="Mozilla/5.0 (Windows NT 10.0; Win64; x64) AppleWebKit/537.36 (KHTML, like Gecko) Chrome/126.0.0.0 Safari/537.36" etag="egEL5dtLsr1Kxn4W-3iu" version="24.6.4" type="device">
  <diagram name="PÃ¡gina-1" id="wdOt6TQVJC9VEujH_Pei">
    <mxGraphModel dx="1434" dy="738" grid="1" gridSize="10" guides="1" tooltips="1" connect="1" arrows="1" fold="1" page="1" pageScale="1" pageWidth="827" pageHeight="1169" math="0" shadow="0">
      <root>
        <mxCell id="0" />
        <mxCell id="1" parent="0" />
        <mxCell id="c-l_ZWL3CEjmx6SEdFGr-1" value="" style="rounded=0;whiteSpace=wrap;html=1;fillColor=#fff2cc;strokeColor=#d6b656;" vertex="1" parent="1">
          <mxGeometry x="60" y="160" width="380" height="460" as="geometry" />
        </mxCell>
        <mxCell id="c-l_ZWL3CEjmx6SEdFGr-2" value="CARD COST API" style="text;html=1;align=center;verticalAlign=middle;whiteSpace=wrap;rounded=0;" vertex="1" parent="1">
          <mxGeometry x="165" y="190" width="110" height="30" as="geometry" />
        </mxCell>
        <mxCell id="c-l_ZWL3CEjmx6SEdFGr-3" value="" style="rounded=0;whiteSpace=wrap;html=1;fillColor=#f8cecc;strokeColor=#b85450;" vertex="1" parent="1">
          <mxGeometry x="320" y="410" width="100" height="90" as="geometry" />
        </mxCell>
        <mxCell id="c-l_ZWL3CEjmx6SEdFGr-4" value="payment Cost" style="rounded=0;whiteSpace=wrap;html=1;fillColor=#d5e8d4;strokeColor=#82b366;" vertex="1" parent="1">
          <mxGeometry x="160" y="440" width="120" height="60" as="geometry" />
        </mxCell>
        <mxCell id="c-l_ZWL3CEjmx6SEdFGr-5" value="users API" style="rounded=0;whiteSpace=wrap;html=1;fillColor=#d5e8d4;strokeColor=#82b366;" vertex="1" parent="1">
          <mxGeometry x="160" y="250" width="120" height="60" as="geometry" />
        </mxCell>
        <mxCell id="c-l_ZWL3CEjmx6SEdFGr-6" value="clearing cost matrix API" style="rounded=0;whiteSpace=wrap;html=1;fillColor=#d5e8d4;strokeColor=#82b366;" vertex="1" parent="1">
          <mxGeometry x="160" y="330" width="120" height="60" as="geometry" />
        </mxCell>
        <mxCell id="c-l_ZWL3CEjmx6SEdFGr-7" value="security" style="rounded=0;whiteSpace=wrap;html=1;fillColor=#ffe6cc;strokeColor=#d79b00;" vertex="1" parent="1">
          <mxGeometry x="80" y="250" width="60" height="250" as="geometry" />
        </mxCell>
        <mxCell id="c-l_ZWL3CEjmx6SEdFGr-8" value="" style="rounded=0;whiteSpace=wrap;html=1;fillColor=#e1d5e7;strokeColor=#9673a6;" vertex="1" parent="1">
          <mxGeometry x="320" y="250" width="100" height="140" as="geometry" />
        </mxCell>
        <mxCell id="c-l_ZWL3CEjmx6SEdFGr-9" value="config" style="rounded=0;whiteSpace=wrap;html=1;fillColor=#f9f7ed;strokeColor=#36393d;" vertex="1" parent="1">
          <mxGeometry x="80" y="535" width="340" height="50" as="geometry" />
        </mxCell>
        <mxCell id="c-l_ZWL3CEjmx6SEdFGr-10" value="external APIs" style="text;html=1;align=center;verticalAlign=middle;whiteSpace=wrap;rounded=0;" vertex="1" parent="1">
          <mxGeometry x="324" y="420" width="90" height="30" as="geometry" />
        </mxCell>
        <mxCell id="c-l_ZWL3CEjmx6SEdFGr-11" value="binlist API" style="rounded=0;whiteSpace=wrap;html=1;" vertex="1" parent="1">
          <mxGeometry x="329" y="450" width="80" height="40" as="geometry" />
        </mxCell>
        <mxCell id="c-l_ZWL3CEjmx6SEdFGr-12" value="" style="endArrow=classic;html=1;rounded=0;" edge="1" parent="1" source="c-l_ZWL3CEjmx6SEdFGr-4" target="c-l_ZWL3CEjmx6SEdFGr-11">
          <mxGeometry width="50" height="50" relative="1" as="geometry">
            <mxPoint x="390" y="570" as="sourcePoint" />
            <mxPoint x="440" y="520" as="targetPoint" />
          </mxGeometry>
        </mxCell>
        <mxCell id="c-l_ZWL3CEjmx6SEdFGr-13" value="" style="endArrow=classic;html=1;rounded=0;" edge="1" parent="1" source="c-l_ZWL3CEjmx6SEdFGr-4" target="c-l_ZWL3CEjmx6SEdFGr-6">
          <mxGeometry width="50" height="50" relative="1" as="geometry">
            <mxPoint x="390" y="570" as="sourcePoint" />
            <mxPoint x="440" y="520" as="targetPoint" />
          </mxGeometry>
        </mxCell>
        <mxCell id="c-l_ZWL3CEjmx6SEdFGr-14" value="" style="endArrow=classic;startArrow=classic;html=1;rounded=0;entryX=0;entryY=0.25;entryDx=0;entryDy=0;" edge="1" parent="1" target="c-l_ZWL3CEjmx6SEdFGr-8">
          <mxGeometry width="50" height="50" relative="1" as="geometry">
            <mxPoint x="280" y="280" as="sourcePoint" />
            <mxPoint x="440" y="520" as="targetPoint" />
          </mxGeometry>
        </mxCell>
        <mxCell id="c-l_ZWL3CEjmx6SEdFGr-15" value="" style="endArrow=classic;startArrow=classic;html=1;rounded=0;" edge="1" parent="1" source="c-l_ZWL3CEjmx6SEdFGr-6" target="c-l_ZWL3CEjmx6SEdFGr-8">
          <mxGeometry width="50" height="50" relative="1" as="geometry">
            <mxPoint x="390" y="570" as="sourcePoint" />
            <mxPoint x="440" y="520" as="targetPoint" />
          </mxGeometry>
        </mxCell>
        <mxCell id="c-l_ZWL3CEjmx6SEdFGr-16" value="persistence" style="text;html=1;align=center;verticalAlign=middle;whiteSpace=wrap;rounded=0;" vertex="1" parent="1">
          <mxGeometry x="340" y="260" width="60" height="30" as="geometry" />
        </mxCell>
        <mxCell id="c-l_ZWL3CEjmx6SEdFGr-17" value="H2" style="rounded=0;whiteSpace=wrap;html=1;" vertex="1" parent="1">
          <mxGeometry x="340" y="300" width="60" height="30" as="geometry" />
        </mxCell>
        <mxCell id="c-l_ZWL3CEjmx6SEdFGr-18" value="LocalDB" style="rounded=0;whiteSpace=wrap;html=1;" vertex="1" parent="1">
          <mxGeometry x="339" y="345" width="61" height="30" as="geometry" />
        </mxCell>
        <mxCell id="c-l_ZWL3CEjmx6SEdFGr-19" value="JWT" style="rounded=0;whiteSpace=wrap;html=1;" vertex="1" parent="1">
          <mxGeometry x="85" y="390" width="50" height="40" as="geometry" />
        </mxCell>
      </root>
    </mxGraphModel>
  </diagram>
</mxfile>
